<svg width="40" height="40" viewBox="0 0 40 40" fill="none" xmlns="http://www.w3.org/2000/svg">
<path d="M20 4C15.7565 4 11.6869 5.68571 8.68629 8.68629C5.68571 11.6869 4 15.7565 4 20C4 24.2435 5.68571 28.3131 8.68629 31.3137C11.6869 34.3143 15.7565 36 20 36C24.2435 36 28.3131 34.3143 31.3137 31.3137C34.3143 28.3131 36 24.2435 36 20C36 15.7565 34.3143 11.6869 31.3137 8.68629C28.3131 5.68571 24.2435 4 20 4ZM0 20C0 8.954 8.954 0 20 0C31.046 0 40 8.954 40 20C40 31.046 31.046 40 20 40C8.954 40 0 31.046 0 20ZM20 8C20.5304 8 21.0391 8.21071 21.4142 8.58579C21.7893 8.96086 22 9.46957 22 10V25.172L26.586 20.586C26.9632 20.2217 27.4684 20.0201 27.9928 20.0247C28.5172 20.0292 29.0188 20.2395 29.3896 20.6104C29.7605 20.9812 29.9708 21.4828 29.9753 22.0072C29.9799 22.5316 29.7783 23.0368 29.414 23.414L21.414 31.414C21.0389 31.7889 20.5303 31.9996 20 31.9996C19.4697 31.9996 18.9611 31.7889 18.586 31.414L10.586 23.414C10.395 23.2295 10.2426 23.0088 10.1378 22.7648C10.033 22.5208 9.97781 22.2584 9.9755 21.9928C9.97319 21.7272 10.0238 21.4639 10.1244 21.2181C10.2249 20.9723 10.3734 20.749 10.5612 20.5612C10.749 20.3734 10.9723 20.2249 11.2181 20.1244C11.4639 20.0238 11.7272 19.9732 11.9928 19.9755C12.2584 19.9778 12.5208 20.033 12.7648 20.1378C13.0088 20.2426 13.2295 20.395 13.414 20.586L18 25.172V10C18 9.46957 18.2107 8.96086 18.5858 8.58579C18.9609 8.21071 19.4696 8 20 8Z" fill="white"/>
</svg>
