<svg width="49" height="49" viewBox="0 0 49 49" fill="none" xmlns="http://www.w3.org/2000/svg">
<path d="M48.6538 0.723145H0.653809V48.7231H48.6538V0.723145Z" fill="white" fill-opacity="0.01"/>
<path d="M33.6538 21.7231H6.65381C5.54924 21.7231 4.65381 22.6186 4.65381 23.7231V39.7231C4.65381 40.8277 5.54924 41.7231 6.65381 41.7231H33.6538C34.7584 41.7231 35.6538 40.8277 35.6538 39.7231V23.7231C35.6538 22.6186 34.7584 21.7231 33.6538 21.7231Z" stroke="white" stroke-width="4"/>
<path d="M29.6538 27.7231H20.6538V35.7231H29.6538V27.7231Z" stroke="white" stroke-width="4" stroke-linecap="round" stroke-linejoin="round"/>
<path d="M27.6538 18.7231C30.4152 18.7231 32.6538 16.4846 32.6538 13.7231C32.6538 10.9617 30.4152 8.72314 27.6538 8.72314C24.8924 8.72314 22.6538 10.9617 22.6538 13.7231C22.6538 16.4846 24.8924 18.7231 27.6538 18.7231Z" fill="#111111" stroke="white" stroke-width="4" stroke-linecap="round" stroke-linejoin="round"/>
<path d="M13.6538 18.7231C16.4152 18.7231 18.6538 16.4846 18.6538 13.7231C18.6538 10.9617 16.4152 8.72314 13.6538 8.72314C10.8924 8.72314 8.65381 10.9617 8.65381 13.7231C8.65381 16.4846 10.8924 18.7231 13.6538 18.7231Z" fill="#111111" stroke="white" stroke-width="4" stroke-linecap="round" stroke-linejoin="round"/>
<path d="M35.6538 35.7231L44.6538 39.7231V23.7231L35.6538 27.7231" stroke="white" stroke-width="4" stroke-linecap="round" stroke-linejoin="round"/>
</svg>
