<svg width="45" height="38" viewBox="0 0 45 38" fill="none" xmlns="http://www.w3.org/2000/svg">
<path d="M17.46 2.43789C14.0728 0.820706 9.33844 0.0285185 3.00001 0.000393489C2.40223 -0.00772798 1.81618 0.166583 1.32 0.500081C0.912744 0.775359 0.579366 1.14649 0.349195 1.58084C0.119023 2.0152 -0.000889089 2.49945 4.96299e-06 2.99102V29.8129C4.96299e-06 31.626 1.29001 32.9938 3.00001 32.9938C9.66282 32.9938 16.3463 33.6163 20.3494 37.4001C20.4041 37.4521 20.473 37.4868 20.5473 37.5C20.6217 37.5132 20.6983 37.5043 20.7676 37.4743C20.8369 37.4444 20.8959 37.3947 20.9372 37.3315C20.9785 37.2683 21.0004 37.1943 21 37.1188V5.51477C21.0002 5.30154 20.9546 5.09076 20.8662 4.89668C20.7779 4.70259 20.649 4.52973 20.4881 4.38977C19.5712 3.60586 18.5526 2.94931 17.46 2.43789Z" fill="white"/>
<path d="M43.68 0.497218C43.1836 0.16455 42.5975 -0.00878779 42 0.000343048C35.6616 0.028468 30.9272 0.816905 27.54 2.43784C26.4475 2.94833 25.4286 3.60359 24.5109 4.38597C24.3504 4.52617 24.2218 4.69911 24.1337 4.89315C24.0455 5.08719 24 5.29785 24 5.51097V37.1169C24 37.1895 24.0213 37.2604 24.0615 37.3209C24.1016 37.3813 24.1587 37.4286 24.2256 37.4567C24.2925 37.4849 24.3662 37.4926 24.4375 37.4791C24.5087 37.4655 24.5744 37.4311 24.6262 37.3803C27.0328 34.9897 31.2563 32.991 42.0038 32.9919C42.7994 32.9919 43.5625 32.6758 44.1251 32.1132C44.6877 31.5506 45.0038 30.7876 45.0038 29.9919V2.99191C45.0048 2.49937 44.8847 2.01413 44.6538 1.57905C44.4229 1.14397 44.0885 0.772424 43.68 0.497218Z" fill="white"/>
</svg>
