<svg width="55" height="54" viewBox="0 0 55 54" fill="none" xmlns="http://www.w3.org/2000/svg">
<g clip-path="url(#clip0_164_45)">
<path fill-rule="evenodd" clip-rule="evenodd" d="M0.483861 0.581587C0.831028 0.210932 1.32046 0 1.83334 0H53.1667C53.6796 0 54.1691 0.210932 54.516 0.581587C54.8632 0.952247 55.0363 1.44873 54.9938 1.95053L51.3271 44.8488C51.2655 45.5659 50.7753 46.1783 50.0797 46.4058L28.0798 53.6058C27.7034 53.7289 27.2966 53.7289 26.9203 53.6058L4.92026 46.4058C4.22488 46.1783 3.73439 45.5659 3.67308 44.8488L0.00642773 1.95053C-0.0364624 1.44873 0.136694 0.952247 0.483861 0.581587ZM40.3333 10.8H14.6667V14.4H36.6667V21.6H22V25.2H36.6667V32.9026L27.5 35.9026L18.3333 32.9026V28.8H14.6667V35.4974L27.5 39.6972L40.3333 35.4974V10.8Z" fill="white"/>
</g>
<defs>
<clipPath id="clip0_164_45">
<rect width="55" height="54" fill="white"/>
</clipPath>
</defs>
</svg>
