<svg width="89" height="91" viewBox="0 0 89 91" fill="none" xmlns="http://www.w3.org/2000/svg">
<ellipse cx="44.5" cy="45.5" rx="44.5" ry="45.5" fill="#464646"/>
<path d="M31.4736 57H21.9033V54.522L25.0771 50.0298C25.9479 48.7928 26.5461 47.8773 26.8716 47.2832C27.1971 46.681 27.4372 46.1073 27.5918 45.562C27.7464 45.0086 27.8237 44.439 27.8237 43.853C27.8237 43.1694 27.6691 42.6567 27.3599 42.3149C27.0588 41.9731 26.6641 41.8022 26.1758 41.8022C25.7445 41.8022 25.3416 41.9162 24.9673 42.144C24.5929 42.3719 24.1372 42.7829 23.6001 43.377L21.7446 41.4238C22.5991 40.4554 23.3926 39.7922 24.125 39.4341C24.8574 39.076 25.6509 38.897 26.5054 38.897C27.9458 38.897 29.0688 39.3201 29.8745 40.1665C30.6883 41.0129 31.0952 42.1888 31.0952 43.6943C31.0952 44.3779 31.022 45.0249 30.8755 45.6353C30.729 46.2456 30.5052 46.86 30.2041 47.4785C29.9111 48.0889 29.5409 48.7277 29.0933 49.395C28.6457 50.0542 27.4901 51.5719 25.6265 53.9482V54.0459H31.4736V57ZM43.2412 48.0767C43.2412 51.3075 42.8506 53.6431 42.0693 55.0835C41.2962 56.5239 40.047 57.2441 38.3218 57.2441C36.5965 57.2441 35.3555 56.5199 34.5986 55.0713C33.8499 53.6227 33.4756 51.2912 33.4756 48.0767C33.4756 44.854 33.8703 42.5143 34.6597 41.0576C35.4491 39.6009 36.686 38.8726 38.3706 38.8726C40.0877 38.8726 41.3288 39.5846 42.0938 41.0088C42.8587 42.4329 43.2412 44.7889 43.2412 48.0767ZM36.7959 48.0767C36.7959 50.575 36.9017 52.2596 37.1133 53.1304C37.333 53.993 37.744 54.4243 38.3462 54.4243C38.7531 54.4243 39.0664 54.2371 39.2861 53.8628C39.514 53.4884 39.6768 52.87 39.7744 52.0073C39.8721 51.1366 39.9209 49.8263 39.9209 48.0767C39.9209 45.619 39.807 43.9425 39.5791 43.0474C39.3512 42.1522 38.9403 41.7046 38.3462 41.7046C37.744 41.7046 37.333 42.1522 37.1133 43.0474C36.9017 43.9344 36.7959 45.6108 36.7959 48.0767ZM53.0435 57H49.772V46.5264C49.772 45.387 49.8289 44.0768 49.9429 42.5957C49.8859 42.6771 49.6743 42.9253 49.3081 43.3403C48.95 43.7554 48.2461 44.5 47.1963 45.5742L45.3408 43.5479L50.0894 39.1533H53.0435V57ZM66.3857 48.0767C66.3857 51.3075 65.9951 53.6431 65.2139 55.0835C64.4408 56.5239 63.1916 57.2441 61.4663 57.2441C59.741 57.2441 58.5 56.5199 57.7432 55.0713C56.9945 53.6227 56.6201 51.2912 56.6201 48.0767C56.6201 44.854 57.0148 42.5143 57.8042 41.0576C58.5936 39.6009 59.8306 38.8726 61.5151 38.8726C63.2323 38.8726 64.4733 39.5846 65.2383 41.0088C66.0033 42.4329 66.3857 44.7889 66.3857 48.0767ZM59.9404 48.0767C59.9404 50.575 60.0462 52.2596 60.2578 53.1304C60.4775 53.993 60.8885 54.4243 61.4907 54.4243C61.8976 54.4243 62.2109 54.2371 62.4307 53.8628C62.6585 53.4884 62.8213 52.87 62.9189 52.0073C63.0166 51.1366 63.0654 49.8263 63.0654 48.0767C63.0654 45.619 62.9515 43.9425 62.7236 43.0474C62.4958 42.1522 62.0848 41.7046 61.4907 41.7046C60.8885 41.7046 60.4775 42.1522 60.2578 43.0474C60.0462 43.9344 59.9404 45.6108 59.9404 48.0767Z" fill="white"/>
</svg>
