<svg width="89" height="91" viewBox="0 0 89 91" fill="none" xmlns="http://www.w3.org/2000/svg">
<ellipse cx="44.5" cy="45.5" rx="44.5" ry="45.5" fill="#464646"/>
<path d="M31.4736 52H21.9033V49.522L25.0771 45.0298C25.9479 43.7928 26.5461 42.8773 26.8716 42.2832C27.1971 41.681 27.4372 41.1073 27.5918 40.562C27.7464 40.0086 27.8237 39.439 27.8237 38.853C27.8237 38.1694 27.6691 37.6567 27.3599 37.3149C27.0588 36.9731 26.6641 36.8022 26.1758 36.8022C25.7445 36.8022 25.3416 36.9162 24.9673 37.144C24.5929 37.3719 24.1372 37.7829 23.6001 38.377L21.7446 36.4238C22.5991 35.4554 23.3926 34.7922 24.125 34.4341C24.8574 34.076 25.6509 33.897 26.5054 33.897C27.9458 33.897 29.0688 34.3201 29.8745 35.1665C30.6883 36.0129 31.0952 37.1888 31.0952 38.6943C31.0952 39.3779 31.022 40.0249 30.8755 40.6353C30.729 41.2456 30.5052 41.86 30.2041 42.4785C29.9111 43.0889 29.5409 43.7277 29.0933 44.395C28.6457 45.0542 27.4901 46.5719 25.6265 48.9482V49.0459H31.4736V52ZM43.2412 43.0767C43.2412 46.3075 42.8506 48.6431 42.0693 50.0835C41.2962 51.5239 40.047 52.2441 38.3218 52.2441C36.5965 52.2441 35.3555 51.5199 34.5986 50.0713C33.8499 48.6227 33.4756 46.2912 33.4756 43.0767C33.4756 39.854 33.8703 37.5143 34.6597 36.0576C35.4491 34.6009 36.686 33.8726 38.3706 33.8726C40.0877 33.8726 41.3288 34.5846 42.0938 36.0088C42.8587 37.4329 43.2412 39.7889 43.2412 43.0767ZM36.7959 43.0767C36.7959 45.575 36.9017 47.2596 37.1133 48.1304C37.333 48.993 37.744 49.4243 38.3462 49.4243C38.7531 49.4243 39.0664 49.2371 39.2861 48.8628C39.514 48.4884 39.6768 47.87 39.7744 47.0073C39.8721 46.1366 39.9209 44.8263 39.9209 43.0767C39.9209 40.619 39.807 38.9425 39.5791 38.0474C39.3512 37.1522 38.9403 36.7046 38.3462 36.7046C37.744 36.7046 37.333 37.1522 37.1133 38.0474C36.9017 38.9344 36.7959 40.6108 36.7959 43.0767ZM54.6182 52H45.0479V49.522L48.2217 45.0298C49.0924 43.7928 49.6906 42.8773 50.0161 42.2832C50.3416 41.681 50.5817 41.1073 50.7363 40.562C50.891 40.0086 50.9683 39.439 50.9683 38.853C50.9683 38.1694 50.8136 37.6567 50.5044 37.3149C50.2033 36.9731 49.8086 36.8022 49.3203 36.8022C48.889 36.8022 48.4862 36.9162 48.1118 37.144C47.7375 37.3719 47.2817 37.7829 46.7446 38.377L44.8892 36.4238C45.7437 35.4554 46.5371 34.7922 47.2695 34.4341C48.002 34.076 48.7954 33.897 49.6499 33.897C51.0903 33.897 52.2134 34.3201 53.019 35.1665C53.8328 36.0129 54.2397 37.1888 54.2397 38.6943C54.2397 39.3779 54.1665 40.0249 54.02 40.6353C53.8735 41.2456 53.6497 41.86 53.3486 42.4785C53.0557 43.0889 52.6854 43.7277 52.2378 44.395C51.7902 45.0542 50.6346 46.5719 48.771 48.9482V49.0459H54.6182V52ZM64.6157 52H61.3442V41.5264C61.3442 40.387 61.4012 39.0768 61.5151 37.5957C61.4582 37.6771 61.2466 37.9253 60.8804 38.3403C60.5223 38.7554 59.8184 39.5 58.7686 40.5742L56.9131 38.5479L61.6616 34.1533H64.6157V52Z" fill="white"/>
</svg>
