<svg width="89" height="91" viewBox="0 0 89 91" fill="none" xmlns="http://www.w3.org/2000/svg">
<ellipse cx="44.5" cy="45.5" rx="44.5" ry="45.5" fill="#464646"/>
<path d="M31.4736 58H21.9033V55.522L25.0771 51.0298C25.9479 49.7928 26.5461 48.8773 26.8716 48.2832C27.1971 47.681 27.4372 47.1073 27.5918 46.562C27.7464 46.0086 27.8237 45.439 27.8237 44.853C27.8237 44.1694 27.6691 43.6567 27.3599 43.3149C27.0588 42.9731 26.6641 42.8022 26.1758 42.8022C25.7445 42.8022 25.3416 42.9162 24.9673 43.144C24.5929 43.3719 24.1372 43.7829 23.6001 44.377L21.7446 42.4238C22.5991 41.4554 23.3926 40.7922 24.125 40.4341C24.8574 40.076 25.6509 39.897 26.5054 39.897C27.9458 39.897 29.0688 40.3201 29.8745 41.1665C30.6883 42.0129 31.0952 43.1888 31.0952 44.6943C31.0952 45.3779 31.022 46.0249 30.8755 46.6353C30.729 47.2456 30.5052 47.86 30.2041 48.4785C29.9111 49.0889 29.5409 49.7277 29.0933 50.395C28.6457 51.0542 27.4901 52.5719 25.6265 54.9482V55.0459H31.4736V58ZM43.2412 49.0767C43.2412 52.3075 42.8506 54.6431 42.0693 56.0835C41.2962 57.5239 40.047 58.2441 38.3218 58.2441C36.5965 58.2441 35.3555 57.5199 34.5986 56.0713C33.8499 54.6227 33.4756 52.2912 33.4756 49.0767C33.4756 45.854 33.8703 43.5143 34.6597 42.0576C35.4491 40.6009 36.686 39.8726 38.3706 39.8726C40.0877 39.8726 41.3288 40.5846 42.0938 42.0088C42.8587 43.4329 43.2412 45.7889 43.2412 49.0767ZM36.7959 49.0767C36.7959 51.575 36.9017 53.2596 37.1133 54.1304C37.333 54.993 37.744 55.4243 38.3462 55.4243C38.7531 55.4243 39.0664 55.2371 39.2861 54.8628C39.514 54.4884 39.6768 53.87 39.7744 53.0073C39.8721 52.1366 39.9209 50.8263 39.9209 49.0767C39.9209 46.619 39.807 44.9425 39.5791 44.0474C39.3512 43.1522 38.9403 42.7046 38.3462 42.7046C37.744 42.7046 37.333 43.1522 37.1133 44.0474C36.9017 44.9344 36.7959 46.6108 36.7959 49.0767ZM54.6182 58H45.0479V55.522L48.2217 51.0298C49.0924 49.7928 49.6906 48.8773 50.0161 48.2832C50.3416 47.681 50.5817 47.1073 50.7363 46.562C50.891 46.0086 50.9683 45.439 50.9683 44.853C50.9683 44.1694 50.8136 43.6567 50.5044 43.3149C50.2033 42.9731 49.8086 42.8022 49.3203 42.8022C48.889 42.8022 48.4862 42.9162 48.1118 43.144C47.7375 43.3719 47.2817 43.7829 46.7446 44.377L44.8892 42.4238C45.7437 41.4554 46.5371 40.7922 47.2695 40.4341C48.002 40.076 48.7954 39.897 49.6499 39.897C51.0903 39.897 52.2134 40.3201 53.019 41.1665C53.8328 42.0129 54.2397 43.1888 54.2397 44.6943C54.2397 45.3779 54.1665 46.0249 54.02 46.6353C53.8735 47.2456 53.6497 47.86 53.3486 48.4785C53.0557 49.0889 52.6854 49.7277 52.2378 50.395C51.7902 51.0542 50.6346 52.5719 48.771 54.9482V55.0459H54.6182V58ZM65.8364 44.1694C65.8364 45.2925 65.5597 46.2365 65.0063 47.0015C64.453 47.7583 63.6717 48.2832 62.6626 48.5762V48.6738C63.7856 48.8529 64.6523 49.2923 65.2627 49.9922C65.8812 50.6921 66.1904 51.6442 66.1904 52.8486C66.1904 54.4925 65.6777 55.8027 64.6523 56.7793C63.6351 57.7559 62.2394 58.2441 60.4653 58.2441C58.8866 58.2441 57.5601 57.9634 56.4858 57.4019V54.4233C57.0229 54.7489 57.6048 55.0052 58.2314 55.1924C58.8581 55.3796 59.4603 55.4731 60.0381 55.4731C60.9821 55.4731 61.6942 55.2575 62.1743 54.8262C62.6545 54.3867 62.8945 53.695 62.8945 52.751C62.8945 50.9688 61.8 50.0776 59.6108 50.0776H58.5977V47.5996H59.562C60.5304 47.5996 61.271 47.3717 61.7837 46.916C62.3045 46.4603 62.5649 45.7808 62.5649 44.8774C62.5649 44.1694 62.3981 43.6364 62.0645 43.2783C61.7389 42.9121 61.2751 42.729 60.6729 42.729C59.7533 42.729 58.8581 43.1196 57.9873 43.9009L56.4858 41.7036C57.6903 40.4992 59.208 39.897 61.0391 39.897C62.5446 39.897 63.7205 40.2795 64.5669 41.0444C65.4132 41.8013 65.8364 42.8429 65.8364 44.1694Z" fill="white"/>
</svg>
