<svg width="89" height="91" viewBox="0 0 89 91" fill="none" xmlns="http://www.w3.org/2000/svg">
<ellipse cx="44.5" cy="45.5" rx="44.5" ry="45.5" fill="#464646"/>
<path d="M33.4736 56H23.9033V53.522L27.0771 49.0298C27.9479 47.7928 28.5461 46.8773 28.8716 46.2832C29.1971 45.681 29.4372 45.1073 29.5918 44.562C29.7464 44.0086 29.8237 43.439 29.8237 42.853C29.8237 42.1694 29.6691 41.6567 29.3599 41.3149C29.0588 40.9731 28.6641 40.8022 28.1758 40.8022C27.7445 40.8022 27.3416 40.9162 26.9673 41.144C26.5929 41.3719 26.1372 41.7829 25.6001 42.377L23.7446 40.4238C24.5991 39.4554 25.3926 38.7922 26.125 38.4341C26.8574 38.076 27.6509 37.897 28.5054 37.897C29.9458 37.897 31.0688 38.3201 31.8745 39.1665C32.6883 40.0129 33.0952 41.1888 33.0952 42.6943C33.0952 43.3779 33.022 44.0249 32.8755 44.6353C32.729 45.2456 32.5052 45.86 32.2041 46.4785C31.9111 47.0889 31.5409 47.7277 31.0933 48.395C30.6457 49.0542 29.4901 50.5719 27.6265 52.9482V53.0459H33.4736V56ZM45.2412 47.0767C45.2412 50.3075 44.8506 52.6431 44.0693 54.0835C43.2962 55.5239 42.047 56.2441 40.3218 56.2441C38.5965 56.2441 37.3555 55.5199 36.5986 54.0713C35.8499 52.6227 35.4756 50.2912 35.4756 47.0767C35.4756 43.854 35.8703 41.5143 36.6597 40.0576C37.4491 38.6009 38.686 37.8726 40.3706 37.8726C42.0877 37.8726 43.3288 38.5846 44.0938 40.0088C44.8587 41.4329 45.2412 43.7889 45.2412 47.0767ZM38.7959 47.0767C38.7959 49.575 38.9017 51.2596 39.1133 52.1304C39.333 52.993 39.744 53.4243 40.3462 53.4243C40.7531 53.4243 41.0664 53.2371 41.2861 52.8628C41.514 52.4884 41.6768 51.87 41.7744 51.0073C41.8721 50.1366 41.9209 48.8263 41.9209 47.0767C41.9209 44.619 41.807 42.9425 41.5791 42.0474C41.3512 41.1522 40.9403 40.7046 40.3462 40.7046C39.744 40.7046 39.333 41.1522 39.1133 42.0474C38.9017 42.9344 38.7959 44.6108 38.7959 47.0767ZM55.0435 56H51.772V45.5264C51.772 44.387 51.8289 43.0768 51.9429 41.5957C51.8859 41.6771 51.6743 41.9253 51.3081 42.3403C50.95 42.7554 50.2461 43.5 49.1963 44.5742L47.3408 42.5479L52.0894 38.1533H55.0435V56ZM58.6201 48.4194C58.6201 44.7817 59.1857 42.1247 60.3169 40.4482C61.4481 38.7637 63.1733 37.9214 65.4927 37.9214C65.8589 37.9214 66.2251 37.9458 66.5913 37.9946C66.9575 38.0353 67.2342 38.0801 67.4214 38.1289V40.8755C66.8599 40.7453 66.3065 40.6802 65.7612 40.6802C64.8335 40.6802 64.0726 40.8836 63.4785 41.2905C62.8844 41.6974 62.4328 42.3078 62.1235 43.1216C61.8143 43.9272 61.6271 45.0625 61.562 46.5273H61.6963C61.9811 45.8519 62.3717 45.3433 62.8682 45.0015C63.3646 44.6515 63.9383 44.4766 64.5894 44.4766C65.7856 44.4766 66.7174 44.9648 67.3848 45.9414C68.0521 46.9098 68.3857 48.2974 68.3857 50.104C68.3857 51.992 67.9463 53.4894 67.0674 54.5962C66.1885 55.6948 64.9963 56.2441 63.4907 56.2441C61.8957 56.2441 60.6831 55.585 59.853 54.2666C59.0311 52.9482 58.6201 50.9992 58.6201 48.4194ZM63.5151 53.4487C64.0034 53.4487 64.394 53.1802 64.687 52.6431C64.9881 52.106 65.1387 51.2677 65.1387 50.1284C65.1387 49.2088 65.0044 48.4845 64.7358 47.9556C64.4754 47.4185 64.0767 47.1499 63.5396 47.1499C63.0594 47.1499 62.6688 47.3981 62.3677 47.8945C62.0666 48.391 61.916 49.0176 61.916 49.7744C61.916 50.9626 62.0544 51.874 62.3311 52.5088C62.6159 53.1354 63.0106 53.4487 63.5151 53.4487Z" fill="white"/>
</svg>
