<svg width="55" height="65" viewBox="0 0 55 65" fill="none" xmlns="http://www.w3.org/2000/svg">
<path d="M32.0832 5.41669H13.7498C12.5343 5.41669 11.3685 5.98737 10.5089 7.00319C9.64939 8.01901 9.1665 9.39676 9.1665 10.8334V54.1667C9.1665 55.6033 9.64939 56.981 10.5089 57.9968C11.3685 59.0127 12.5343 59.5834 13.7498 59.5834H41.2498C42.4654 59.5834 43.6312 59.0127 44.4907 57.9968C45.3503 56.981 45.8332 55.6033 45.8332 54.1667V21.6667L32.0832 5.41669ZM29.7915 10.8334L41.2498 24.375H29.7915V10.8334ZM19.55 48.75H17.8084V44.9286H14.93V48.75H13.1723V39.6148H14.93V43.1248H17.8107V39.6148H19.5523L19.55 48.75ZM26.425 41.3509H24.3144V48.75H22.559V41.3509H20.485V39.6148H26.425V41.3509ZM33.9578 48.75L33.8432 45.2536C33.8042 44.1567 33.7744 42.8269 33.7744 41.4971H33.7378C33.4994 42.6644 33.1763 43.9644 32.8784 45.0369L31.9388 48.6011H30.5707L29.748 45.0613C29.4695 43.8861 29.2355 42.6969 29.0467 41.4971H29.0215C28.9734 42.7321 28.9436 44.1404 28.8863 45.2779L28.7488 48.75H27.1332L27.6282 39.6148H29.9542L30.7128 42.6644C30.9511 43.7234 31.194 44.8609 31.3636 45.9306H31.4025C31.6203 44.8717 31.8815 43.6665 32.1359 42.6509L32.9586 39.6148H35.2411L35.665 48.75H33.9578ZM41.8273 48.75H36.9965V39.6148H38.7542V47.014H41.8296L41.8273 48.75Z" fill="white"/>
</svg>
