<svg width="55" height="55" viewBox="0 0 55 55" fill="none" xmlns="http://www.w3.org/2000/svg">
<path d="M3.4375 3.4375V51.5625H51.5625V3.4375H3.4375ZM29.2188 40.8203C29.2188 45.505 26.4516 47.7888 22.4458 47.7888C18.8278 47.7888 16.7277 45.9153 15.6621 43.6541L19.3445 41.4251C20.0546 42.6852 20.5938 43.7508 22.1439 43.7508C23.433 43.7508 24.4922 43.1696 24.4922 40.9084V25.7812H29.2188V40.8203ZM39.8911 47.6813C35.692 47.6813 32.9785 45.7864 31.654 43.1696L35.3418 41.0352C36.3086 42.6186 37.5708 43.6734 39.7998 43.6734C41.6732 43.6734 42.7614 42.8441 42.7614 41.5519C42.7614 40.0018 41.641 39.4528 39.5731 38.544L38.4431 38.0585C35.1796 36.6706 33.0161 34.9261 33.0161 31.2426C33.0161 27.8513 35.5996 25.3741 39.6376 25.3741C42.5133 25.3741 44.579 26.2679 46.0668 28.8847L42.5391 31.1523C41.7635 29.7634 40.9277 29.2188 39.6322 29.2188C38.3077 29.2188 37.4677 30.0588 37.4677 31.1523C37.4677 32.5091 38.3077 33.058 40.2456 33.898L41.3757 34.3825C45.2203 36.0304 47.3849 37.7126 47.3849 41.4896C47.3859 45.5608 44.188 47.6813 39.8911 47.6813Z" fill="white"/>
</svg>
