<svg width="44" height="48" viewBox="0 0 44 48" fill="none" xmlns="http://www.w3.org/2000/svg">
<path d="M41.3323 10.1581L13.4708 18.0163H42.4675C43.3138 18.0163 44 18.6875 44 19.5155V40.5041C44 44.6439 40.5694 48 36.3377 48H8.75359C4.52181 48 1.09132 44.6439 1.09132 40.5041V19.7286L0.301858 17.0499C-0.870439 13.072 1.4755 8.91764 5.54162 7.7708L32.0462 0.295303C36.1125 -0.851537 40.3589 1.44346 41.5312 5.42129L42.3802 8.30228C42.6147 9.09787 42.1457 9.92874 41.3323 10.1581ZM3.67136 17.6598L5.52906 17.1358L9.94777 9.64854L6.3907 10.6518C3.951 11.3399 2.54344 13.8325 3.24681 16.2192L3.67136 17.6598ZM9.77485 15.9383L16.2755 14.1048L20.6942 6.61757L14.1841 8.4537C14.1641 8.49643 14.1419 8.53864 14.1173 8.58017L9.77485 15.9383ZM27.0219 11.0738L31.4406 3.5866L24.9255 5.42417C24.9019 5.47757 24.875 5.53022 24.8446 5.58182L20.5213 12.9073L27.0219 11.0738ZM35.2466 3.12479C35.2288 3.16116 35.2095 3.19714 35.1887 3.23264L31.2678 9.87633L39.0109 7.69242L38.5865 6.25189C38.112 4.64267 36.7993 3.49248 35.2466 3.12479Z" fill="white"/>
</svg>
