<svg width="55" height="49" viewBox="0 0 55 49" fill="none" xmlns="http://www.w3.org/2000/svg">
<path d="M49.5833 1H5.41667C2.97742 1 1 2.75356 1 4.91667V44.0833C1 46.2465 2.97742 48 5.41667 48H49.5833C52.0227 48 54 46.2465 54 44.0833V4.91667C54 2.75356 52.0227 1 49.5833 1Z" stroke="white" stroke-width="2" stroke-linecap="round" stroke-linejoin="round"/>
<path d="M18.6668 23.1945C22.7322 23.1945 26.0279 20.2719 26.0279 16.6667C26.0279 13.0615 22.7322 10.1389 18.6668 10.1389C14.6014 10.1389 11.3057 13.0615 11.3057 16.6667C11.3057 20.2719 14.6014 23.1945 18.6668 23.1945Z" fill="white" stroke="white" stroke-width="2" stroke-linecap="round" stroke-linejoin="round"/>
<path d="M54 40.1666L37.8056 27.1111L23.0833 38.8611L12.7778 31.0278L1 38.8611" stroke="white" stroke-width="2" stroke-linecap="round" stroke-linejoin="round"/>
</svg>
