<svg width="55" height="54" viewBox="0 0 55 54" fill="none" xmlns="http://www.w3.org/2000/svg">
<g clip-path="url(#clip0_164_42)">
<path d="M11 43.2H5.5C2.46243 43.2 0 40.7822 0 37.8V19.8C0 16.8177 2.46243 14.4 5.5 14.4H29.3333V10.8H25.6667V7.2H22V10.8H14.6667V5.4C14.6667 2.41766 17.1291 0 20.1667 0H34.8333C37.8708 0 40.3333 2.41766 40.3333 5.4V23.4C40.3333 24.3941 39.5124 25.2 38.5 25.2H16.5C13.4624 25.2 11 27.6177 11 30.6V43.2Z" fill="white"/>
<path d="M43.9998 10.8V23.4C43.9998 26.3823 41.5373 28.8 38.4998 28.8H16.4998C15.4873 28.8 14.6665 29.6059 14.6665 30.6V48.6C14.6665 51.5822 17.1289 54 20.1665 54H34.8332C37.8706 54 40.3332 51.5822 40.3332 48.6V43.2H32.9998V46.8H29.3332V43.2H25.6665V39.6H49.4998C52.5373 39.6 54.9998 37.1822 54.9998 34.2V16.2C54.9998 13.2176 52.5373 10.8 49.4998 10.8H43.9998Z" fill="white"/>
</g>
<defs>
<clipPath id="clip0_164_42">
<rect width="55" height="54" fill="white"/>
</clipPath>
</defs>
</svg>
