<svg width="46" height="40" viewBox="0 0 46 40" fill="none" xmlns="http://www.w3.org/2000/svg">
<path d="M43.6803 17.2859L43.6653 17.2794L3.62656 0.67249C3.28979 0.531536 2.92334 0.476255 2.55997 0.511593C2.19661 0.546932 1.84767 0.671787 1.54438 0.87499C1.22393 1.08496 0.960718 1.3713 0.778414 1.70826C0.59611 2.04521 0.500436 2.4222 0.500001 2.8053V13.4262C0.500179 13.95 0.683056 14.4572 1.01711 14.8606C1.35117 15.264 1.81547 15.5382 2.33 15.6359L24.1672 19.6737C24.253 19.69 24.3304 19.7357 24.3861 19.803C24.4419 19.8702 24.4723 19.9548 24.4723 20.0422C24.4723 20.1295 24.4419 20.2141 24.3861 20.2814C24.3304 20.3486 24.253 20.3943 24.1672 20.4106L2.33094 24.4484C1.81655 24.5459 1.35227 24.8198 1.01807 25.2228C0.683865 25.6258 0.500656 26.1327 0.500001 26.6562V37.2791C0.499752 37.6449 0.590332 38.005 0.763614 38.3272C0.936896 38.6494 1.18746 38.9235 1.49281 39.125C1.86012 39.369 2.29119 39.4995 2.73219 39.5C3.03877 39.4997 3.34221 39.4382 3.62469 39.3191L43.6625 22.8069L43.6803 22.7984C44.2193 22.5668 44.6785 22.1823 45.0011 21.6924C45.3238 21.2025 45.4958 20.6288 45.4958 20.0422C45.4958 19.4556 45.3238 18.8818 45.0011 18.392C44.6785 17.9021 44.2193 17.5175 43.6803 17.2859Z" fill="white"/>
</svg>
