<svg width="133" height="40" viewBox="0 0 133 40" fill="none" xmlns="http://www.w3.org/2000/svg">
<path d="M20 4C15.7565 4 11.6869 5.68571 8.68629 8.68629C5.68571 11.6869 4 15.7565 4 20C4 24.2435 5.68571 28.3131 8.68629 31.3137C11.6869 34.3143 15.7565 36 20 36C24.2435 36 28.3131 34.3143 31.3137 31.3137C34.3143 28.3131 36 24.2435 36 20C36 15.7565 34.3143 11.6869 31.3137 8.68629C28.3131 5.68571 24.2435 4 20 4ZM0 20C0 8.954 8.954 0 20 0C31.046 0 40 8.954 40 20C40 31.046 31.046 40 20 40C8.954 40 0 31.046 0 20ZM19.414 10.586C19.7889 10.9611 19.9996 11.4697 19.9996 12C19.9996 12.5303 19.7889 13.0389 19.414 13.414L14.828 18H30C30.5304 18 31.0391 18.2107 31.4142 18.5858C31.7893 18.9609 32 19.4696 32 20C32 20.5304 31.7893 21.0391 31.4142 21.4142C31.0391 21.7893 30.5304 22 30 22H14.828L19.414 26.586C19.7783 26.9632 19.9799 27.4684 19.9753 27.9928C19.9708 28.5172 19.7605 29.0188 19.3896 29.3896C19.0188 29.7605 18.5172 29.9708 17.9928 29.9753C17.4684 29.9799 16.9632 29.7783 16.586 29.414L8.586 21.414C8.21106 21.0389 8.00043 20.5303 8.00043 20C8.00043 19.4697 8.21106 18.9611 8.586 18.586L16.586 10.586C16.9611 10.2111 17.4697 10.0004 18 10.0004C18.5303 10.0004 19.0389 10.2111 19.414 10.586Z" fill="white"/>
<path d="M113 4C108.757 4 104.687 5.68571 101.686 8.68629C98.6857 11.6869 97 15.7565 97 20C97 24.2435 98.6857 28.3131 101.686 31.3137C104.687 34.3143 108.757 36 113 36C117.243 36 121.313 34.3143 124.314 31.3137C127.314 28.3131 129 24.2435 129 20C129 15.7565 127.314 11.6869 124.314 8.68629C121.313 5.68571 117.243 4 113 4ZM93 20C93 8.954 101.954 0 113 0C124.046 0 133 8.954 133 20C133 31.046 124.046 40 113 40C101.954 40 93 31.046 93 20ZM113.586 10.586C113.961 10.2111 114.47 10.0004 115 10.0004C115.53 10.0004 116.039 10.2111 116.414 10.586L124.414 18.586C124.789 18.9611 125 19.4697 125 20C125 20.5303 124.789 21.0389 124.414 21.414L116.414 29.414C116.037 29.7783 115.532 29.9799 115.007 29.9753C114.483 29.9708 113.981 29.7605 113.61 29.3896C113.24 29.0188 113.029 28.5172 113.025 27.9928C113.02 27.4684 113.222 26.9632 113.586 26.586L118.172 22H103C102.47 22 101.961 21.7893 101.586 21.4142C101.211 21.0391 101 20.5304 101 20C101 19.4696 101.211 18.9609 101.586 18.5858C101.961 18.2107 102.47 18 103 18H118.172L113.586 13.414C113.211 13.0389 113 12.5303 113 12C113 11.4697 113.211 10.9611 113.586 10.586Z" fill="white"/>
</svg>
