<svg width="62" height="43" viewBox="0 0 62 43" fill="none" xmlns="http://www.w3.org/2000/svg">
<path d="M41 14.9166L56.1767 7.4248C56.6847 7.17409 57.2493 7.05574 57.8166 7.08097C58.384 7.10621 58.9355 7.27419 59.4187 7.56899C59.9019 7.86379 60.3008 8.27561 60.5775 8.7654C60.8543 9.25518 60.9997 9.80668 61 10.3675V32.6324C60.9997 33.1933 60.8543 33.7447 60.5775 34.2345C60.3008 34.7243 59.9019 35.1361 59.4187 35.4309C58.9355 35.7257 58.384 35.8937 57.8166 35.919C57.2493 35.9442 56.6847 35.8258 56.1767 35.5751L41 28.0833V14.9166Z" stroke="white" stroke-width="2" stroke-linecap="round" stroke-linejoin="round"/>
<path d="M34.3333 1.75H7.66667C3.98477 1.75 1 4.69746 1 8.33333V34.6667C1 38.3025 3.98477 41.25 7.66667 41.25H34.3333C38.0152 41.25 41 38.3025 41 34.6667V8.33333C41 4.69746 38.0152 1.75 34.3333 1.75Z" stroke="white" stroke-width="2" stroke-linecap="round" stroke-linejoin="round"/>
</svg>
