<svg width="53" height="47" viewBox="0 0 53 47" fill="none" xmlns="http://www.w3.org/2000/svg">
<path d="M26.5 0C11.8881 0 0 10.5422 0 23.5C0 36.4578 11.8881 47 26.5 47C41.1119 47 53 36.4578 53 23.5C53 10.5422 41.1119 0 26.5 0ZM20.1018 13.1984C21.716 11.6811 23.9876 10.8462 26.5 10.8462C29.0124 10.8462 31.2636 11.6867 32.8842 13.212C34.5264 14.7575 35.3253 16.8341 35.1367 19.0666C34.7596 23.5 30.8865 27.1154 26.5 27.1154C22.1135 27.1154 18.2328 23.5 17.8633 19.0655C17.676 16.8149 18.4736 14.7316 20.1018 13.1984ZM26.5 43.3846C23.5066 43.3864 20.5433 42.8551 17.7858 41.8222C15.0283 40.7893 12.5327 39.2759 10.4471 37.3718C11.6416 35.8612 13.1636 34.5768 14.9241 33.5937C18.1716 31.7476 22.2817 30.7308 26.5 30.7308C30.7183 30.7308 34.8284 31.7476 38.0721 33.5937C39.8341 34.5764 41.3574 35.8608 42.5529 37.3718C40.4675 39.2761 37.9719 40.7897 35.2144 41.8226C32.4568 42.8554 29.4934 43.3866 26.5 43.3846Z" fill="white"/>
</svg>
