<svg width="42" height="42" viewBox="0 0 42 42" fill="none" xmlns="http://www.w3.org/2000/svg">
<path d="M33.647 41.9991C31.817 41.9991 29.2464 41.3373 25.397 39.1866C20.7161 36.5616 17.0955 34.1382 12.4399 29.4948C7.95111 25.0088 5.76673 22.1044 2.70954 16.5413C-0.744206 10.2601 -0.155456 6.96757 0.502669 5.56038C1.28642 3.87851 2.44329 2.87257 3.93861 1.87413C4.78793 1.31766 5.68674 0.840647 6.62361 0.44913C6.71736 0.408818 6.80454 0.37038 6.88236 0.335693C7.34642 0.12663 8.04954 -0.189307 8.94017 0.148193C9.53454 0.371318 10.0652 0.82788 10.8958 1.64819C12.5992 3.32819 14.927 7.06976 15.7858 8.90726C16.3624 10.1457 16.7439 10.9632 16.7449 11.8801C16.7449 12.9535 16.2049 13.7813 15.5495 14.6748C15.4267 14.8426 15.3049 15.0029 15.1867 15.1585C14.4733 16.096 14.3167 16.3669 14.4199 16.8507C14.6289 17.8229 16.188 20.7169 18.7502 23.2735C21.3124 25.8301 24.123 27.2907 25.0989 27.4988C25.6033 27.6066 25.8799 27.4435 26.8474 26.7048C26.9861 26.5988 27.1286 26.4891 27.2777 26.3794C28.277 25.636 29.0664 25.1101 30.1145 25.1101H30.1202C31.0324 25.1101 31.8133 25.5057 33.107 26.1582C34.7945 27.0094 38.6486 29.3073 40.3389 31.0126C41.1611 31.8413 41.6195 32.3701 41.8436 32.9635C42.1811 33.8569 41.8633 34.5573 41.6561 35.026C41.6214 35.1038 41.583 35.1891 41.5427 35.2838C41.1481 36.219 40.6682 37.1159 40.1092 37.9632C39.1127 39.4538 38.103 40.6079 36.4174 41.3926C35.5518 41.802 34.6045 42.0094 33.647 41.9991Z" fill="white"/>
</svg>
