<svg width="20" height="23" viewBox="0 0 20 23" fill="none" xmlns="http://www.w3.org/2000/svg">
<path d="M16.0257 22.9998C15.1541 22.9998 13.9297 22.6373 12.0963 21.4596C9.86683 20.0221 8.14237 18.695 5.92495 16.1521C3.78701 13.6955 2.74662 12.105 1.29052 9.05845C-0.354456 5.61868 -0.074042 3.81562 0.239415 3.04501C0.612706 2.12397 1.16371 1.57309 1.87591 1.02632C2.28043 0.721586 2.70852 0.46036 3.15474 0.245955C3.1994 0.223879 3.24092 0.20283 3.27798 0.183834C3.49901 0.0693459 3.8339 -0.10367 4.25809 0.0811541C4.54119 0.203343 4.79392 0.453368 5.18953 0.902593C6.00086 1.8226 7.10957 3.87158 7.51858 4.87784C7.79319 5.55604 7.97493 6.00373 7.97537 6.50583C7.97537 7.09367 7.71818 7.547 7.40606 8.03627C7.34756 8.12817 7.28952 8.21596 7.23325 8.30119C6.89345 8.81459 6.81888 8.96296 6.868 9.22787C6.96758 9.76027 7.71014 11.3451 8.93048 12.7452C10.1508 14.1452 11.4895 14.9451 11.9543 15.0591C12.1945 15.1181 12.3263 15.0288 12.7871 14.6242C12.8532 14.5662 12.921 14.5061 12.992 14.4461C13.468 14.0389 13.844 13.7509 14.3432 13.7509H14.3459C14.7803 13.7509 15.1523 13.9676 15.7685 14.3249C16.5722 14.7911 18.4079 16.0494 19.2129 16.9833C19.6045 17.4371 19.8229 17.7267 19.9296 18.0517C20.0903 18.5409 19.939 18.9244 19.8403 19.1811C19.8238 19.2238 19.8055 19.2705 19.7863 19.3223C19.5983 19.8345 19.3698 20.3256 19.1035 20.7896C18.6289 21.6059 18.148 22.2379 17.3451 22.6676C16.9329 22.8918 16.4817 23.0054 16.0257 22.9998Z" fill="#767676"/>
</svg>
