<svg width="53" height="47" viewBox="0 0 53 47" fill="none" xmlns="http://www.w3.org/2000/svg">
<path d="M40.7692 28.9231V7.23077C40.7692 3.25385 37.1 0 32.6154 0H8.15385C3.66923 0 0 3.25385 0 7.23077V28.9231C0 32.9 3.66923 36.1539 8.15385 36.1539H32.6154C37.1 36.1539 40.7692 32.9 40.7692 28.9231ZM14.2692 18.0769L18.7538 23.8615L24.8692 15.1846L32.6154 28.9231H8.15385L14.2692 18.0769ZM44.8462 10.8462V39.7692H20.3846H12.2308C12.2308 43.7462 15.9 47 20.3846 47H44.8462C49.3308 47 53 43.7462 53 39.7692V18.0769C53 14.1 49.3308 10.8462 44.8462 10.8462Z" fill="white"/>
</svg>
