<svg width="142" height="142" viewBox="0 0 142 142" fill="none" xmlns="http://www.w3.org/2000/svg">
<path d="M41.4168 112.417C47.9522 112.417 53.2502 107.119 53.2502 100.583C53.2502 94.048 47.9522 88.75 41.4168 88.75C34.8815 88.75 29.5835 94.048 29.5835 100.583C29.5835 107.119 34.8815 112.417 41.4168 112.417Z" stroke="#D40F24" stroke-width="5" stroke-linecap="round" stroke-linejoin="round"/>
<path d="M100.583 112.417C107.119 112.417 112.417 107.119 112.417 100.583C112.417 94.048 107.119 88.75 100.583 88.75C94.048 88.75 88.75 94.048 88.75 100.583C88.75 107.119 94.048 112.417 100.583 112.417Z" stroke="#D40F24" stroke-width="5" stroke-linecap="round" stroke-linejoin="round"/>
<path d="M29.5833 100.583H17.75V65.0833M17.75 65.0833L29.5833 35.5H82.8333L106.5 65.0833M17.75 65.0833H106.5M106.5 65.0833H112.417C115.555 65.0833 118.565 66.3301 120.784 68.5492C123.003 70.7684 124.25 73.7783 124.25 76.9167V100.583H112.417M88.75 100.583H53.25M71 65.0833V35.5" stroke="#D40F24" stroke-width="5" stroke-linecap="round" stroke-linejoin="round"/>
</svg>
