<svg width="47" height="46" viewBox="0 0 47 46" fill="none" xmlns="http://www.w3.org/2000/svg">
<path fill-rule="evenodd" clip-rule="evenodd" d="M32.0455 16.7273C32.0455 21.3463 28.2195 25.0909 23.5 25.0909C18.7805 25.0909 14.9546 21.3463 14.9546 16.7273C14.9546 12.1082 18.7805 8.36365 23.5 8.36365C28.2195 8.36365 32.0455 12.1082 32.0455 16.7273ZM27.7728 16.7273C27.7728 19.0369 25.8599 20.9091 23.5 20.9091C21.1402 20.9091 19.2273 19.0369 19.2273 16.7273C19.2273 14.4177 21.1402 12.5455 23.5 12.5455C25.8599 12.5455 27.7728 14.4177 27.7728 16.7273Z" fill="#DF1229"/>
<path fill-rule="evenodd" clip-rule="evenodd" d="M23.5 0C10.5213 0 0 10.2975 0 23C0 35.7025 10.5213 46 23.5 46C36.4786 46 47 35.7025 47 23C47 10.2975 36.4786 0 23.5 0ZM4.27273 23C4.27273 27.3704 5.79499 31.3929 8.34887 34.5872C11.8621 30.0859 17.4034 27.1818 23.6378 27.1818C29.7912 27.1818 35.2697 30.011 38.7889 34.4128C41.2596 31.2472 42.7273 27.2914 42.7273 23C42.7273 12.607 34.119 4.18182 23.5 4.18182C12.8811 4.18182 4.27273 12.607 4.27273 23ZM23.5 41.8182C18.9063 41.8182 14.6889 40.2414 11.3818 37.6109C14.0862 33.8334 18.5673 31.3636 23.6378 31.3636C28.6452 31.3636 33.078 33.7726 35.7922 37.471C32.4597 40.1854 28.1746 41.8182 23.5 41.8182Z" fill="#DF1229"/>
</svg>
