<svg width="89" height="103" viewBox="0 0 89 103" fill="none" xmlns="http://www.w3.org/2000/svg">
<path d="M11.1249 90.125V72.9584C11.1249 69.5631 11.9948 66.2441 13.6247 63.4211C15.2547 60.598 17.5713 58.3977 20.2817 57.0984C22.9922 55.7991 25.9747 55.4592 28.8521 56.1215C31.7294 56.7839 34.3725 58.4189 36.447 60.8197C38.5214 63.2205 39.9342 66.2793 40.5065 69.6093C41.0789 72.9393 40.7851 76.391 39.6624 79.5278C38.5397 82.6646 36.6385 85.3456 34.1992 87.2319C31.7598 89.1182 28.892 90.125 25.9582 90.125H11.1249Z" stroke="white" stroke-width="4" stroke-linecap="round" stroke-linejoin="round"/>
<path d="M77.875 12.875C67.2907 14.5505 57.2937 19.5019 48.9391 27.2068C40.5845 34.9116 34.1823 45.0839 30.4083 56.65" stroke="white" stroke-width="4" stroke-linecap="round" stroke-linejoin="round"/>
<path d="M77.8749 12.875C76.4272 25.1242 72.1487 36.6938 65.4912 46.3626C58.8336 56.0314 50.0439 63.4407 40.0499 67.8083" stroke="white" stroke-width="4" stroke-linecap="round" stroke-linejoin="round"/>
<path d="M39.3085 38.625C46.5144 42.4741 52.2993 49.1689 55.6251 57.5083" stroke="white" stroke-width="4" stroke-linecap="round" stroke-linejoin="round"/>
</svg>
