<svg width="42" height="42" viewBox="0 0 42 42" fill="none" xmlns="http://www.w3.org/2000/svg">
<path d="M29.7497 3.49969C32.0684 3.50661 34.2901 4.43077 35.9297 6.07034C37.5692 7.7099 38.4934 9.93163 38.5003 12.2503V29.7497C38.4934 32.0684 37.5692 34.2901 35.9297 35.9297C34.2901 37.5692 32.0684 38.4934 29.7497 38.5003H12.2503C9.93163 38.4934 7.7099 37.5692 6.07034 35.9297C4.43077 34.2901 3.50661 32.0684 3.49969 29.7497V12.2503C3.50661 9.93163 4.43077 7.7099 6.07034 6.07034C7.7099 4.43077 9.93163 3.50661 12.2503 3.49969H29.7497ZM29.7497 0H12.2503C5.5125 0 0 5.5125 0 12.2503V29.7497C0 36.4875 5.5125 42 12.2503 42H29.7497C36.4875 42 42 36.4875 42 29.7497V12.2503C42 5.5125 36.4875 0 29.7497 0Z" fill="#8E8E8E"/>
<path d="M32.3746 12.2502C31.8555 12.2502 31.3479 12.0963 30.9163 11.8079C30.4846 11.5194 30.1481 11.1094 29.9495 10.6298C29.7508 10.1501 29.6988 9.62233 29.8001 9.11313C29.9014 8.60393 30.1514 8.1362 30.5185 7.76909C30.8856 7.40198 31.3533 7.15197 31.8625 7.05068C32.3717 6.9494 32.8995 7.00138 33.3792 7.20006C33.8588 7.39874 34.2688 7.73519 34.5572 8.16687C34.8457 8.59855 34.9996 9.10607 34.9996 9.62524C35.0004 9.97017 34.933 10.3119 34.8013 10.6307C34.6697 10.9495 34.4763 11.2392 34.2324 11.4831C33.9885 11.727 33.6989 11.9203 33.3801 12.0519C33.0612 12.1836 32.7196 12.251 32.3746 12.2502Z" fill="#8E8E8E"/>
<path d="M21 13.9997C22.3845 13.9997 23.738 14.4102 24.8892 15.1795C26.0404 15.9487 26.9376 17.042 27.4674 18.3211C27.9973 19.6002 28.1359 21.0078 27.8658 22.3657C27.5957 23.7236 26.929 24.971 25.95 25.95C24.971 26.929 23.7236 27.5957 22.3657 27.8658C21.0078 28.1359 19.6002 27.9973 18.3211 27.4674C17.042 26.9376 15.9487 26.0404 15.1795 24.8892C14.4103 23.738 13.9997 22.3845 13.9997 21C14.0017 19.144 14.7398 17.3646 16.0522 16.0522C17.3646 14.7398 19.144 14.0017 21 13.9997ZM21 10.5C18.9233 10.5 16.8932 11.1158 15.1665 12.2696C13.4398 13.4233 12.094 15.0632 11.2993 16.9818C10.5045 18.9004 10.2966 21.0116 10.7018 23.0484C11.1069 25.0852 12.1069 26.9562 13.5754 28.4246C15.0438 29.8931 16.9148 30.8931 18.9516 31.2982C20.9884 31.7034 23.0996 31.4955 25.0182 30.7007C26.9368 29.906 28.5767 28.5602 29.7304 26.8335C30.8842 25.1068 31.5 23.0767 31.5 21C31.5 18.2152 30.3938 15.5445 28.4246 13.5754C26.4555 11.6062 23.7848 10.5 21 10.5Z" fill="#8E8E8E"/>
</svg>
