<svg width="53" height="56" viewBox="0 0 53 56" fill="none" xmlns="http://www.w3.org/2000/svg">
<path d="M31.9446 16.6045C33.3226 16.6091 34.6431 17.2108 35.6175 18.2785C36.5919 19.3461 37.1412 20.7928 37.1453 22.3026V33.6976C37.1412 35.2074 36.5919 36.6541 35.6175 37.7217C34.6431 38.7894 33.3226 39.3911 31.9446 39.3957H21.5443C20.1663 39.3911 18.8458 38.7894 17.8714 37.7217C16.897 36.6541 16.3477 35.2074 16.3436 33.6976V22.3026C16.3477 20.7928 16.897 19.3461 17.8714 18.2785C18.8458 17.2108 20.1663 16.6091 21.5443 16.6045H31.9446ZM31.9446 14.3257H21.5443C17.5399 14.3257 14.2637 17.9152 14.2637 22.3026V33.6976C14.2637 38.085 17.5399 41.6745 21.5443 41.6745H31.9446C35.949 41.6745 39.2252 38.085 39.2252 33.6976V22.3026C39.2252 17.9152 35.949 14.3257 31.9446 14.3257Z" fill="#8E8E8E"/>
<path d="M33.5044 22.3024C33.1959 22.3024 32.8942 22.2021 32.6377 22.0143C32.3811 21.8265 32.1812 21.5595 32.0631 21.2472C31.945 20.9349 31.9141 20.5912 31.9743 20.2596C32.0345 19.9281 32.1831 19.6235 32.4013 19.3844C32.6195 19.1454 32.8974 18.9826 33.2001 18.9166C33.5027 18.8507 33.8164 18.8845 34.1015 19.0139C34.3865 19.1433 34.6302 19.3624 34.8016 19.6435C34.973 19.9245 35.0645 20.255 35.0645 20.5931C35.065 20.8177 35.0249 21.0402 34.9467 21.2478C34.8684 21.4554 34.7535 21.644 34.6086 21.8028C34.4636 21.9616 34.2915 22.0875 34.102 22.1733C33.9125 22.259 33.7094 22.3029 33.5044 22.3024Z" fill="#8E8E8E"/>
<path d="M26.7445 23.442C27.5674 23.442 28.3718 23.7093 29.056 24.2102C29.7401 24.711 30.2734 25.423 30.5883 26.2559C30.9032 27.0888 30.9856 28.0054 30.825 28.8896C30.6645 29.7738 30.2683 30.586 29.6864 31.2235C29.1046 31.861 28.3633 32.2952 27.5562 32.471C26.7492 32.6469 25.9126 32.5567 25.1524 32.2117C24.3922 31.8666 23.7424 31.2824 23.2853 30.5328C22.8281 29.7832 22.5841 28.9018 22.5841 28.0003C22.5853 26.7917 23.024 25.6331 23.804 24.7785C24.5839 23.9239 25.6415 23.4432 26.7445 23.442ZM26.7445 21.1631C25.5103 21.1631 24.3038 21.5641 23.2776 22.3154C22.2513 23.0666 21.4515 24.1345 20.9792 25.3838C20.5069 26.6331 20.3833 28.0079 20.6241 29.3342C20.8648 30.6605 21.4592 31.8787 22.3319 32.8349C23.2047 33.7911 24.3166 34.4423 25.5271 34.7061C26.7376 34.9699 27.9924 34.8345 29.1326 34.3171C30.2729 33.7996 31.2475 32.9232 31.9332 31.7988C32.6189 30.6745 32.9849 29.3526 32.9849 28.0003C32.9849 26.187 32.3275 24.4479 31.1572 23.1657C29.9869 21.8834 28.3996 21.1631 26.7445 21.1631Z" fill="#8E8E8E"/>
<path d="M51.3947 28C51.3947 42.7173 40.1459 54.5 26.4474 54.5C12.7488 54.5 1.5 42.7173 1.5 28C1.5 13.2827 12.7488 1.5 26.4474 1.5C40.1459 1.5 51.3947 13.2827 51.3947 28Z" stroke="#8E8E8E" stroke-width="3"/>
</svg>
