<svg width="111" height="108" viewBox="0 0 111 108" fill="none" xmlns="http://www.w3.org/2000/svg">
<ellipse cx="55.5" cy="54" rx="55.5" ry="54" fill="#D40F24"/>
<path fill-rule="evenodd" clip-rule="evenodd" d="M45.4 30C37.4471 30 31 36.4471 31 44.4V63.6C31 71.553 37.4471 78 45.4 78H64.6C72.553 78 79 71.553 79 63.6V44.4C79 36.4471 72.553 30 64.6 30H45.4ZM43.8 54C43.8 47.8144 48.8144 42.8 55 42.8C61.1856 42.8 66.2 47.8144 66.2 54C66.2 60.1856 61.1856 65.2 55 65.2C48.8144 65.2 43.8 60.1856 43.8 54ZM66.2 42.8H69.4V39.6H66.2V42.8Z" fill="white"/>
</svg>
