<svg width="17" height="25" viewBox="0 0 17 25" fill="none" xmlns="http://www.w3.org/2000/svg">
<path d="M8.5 0C3.80747 0 0 3.59989 0 8.03571C0 15.1786 8.5 25 8.5 25C8.5 25 17 15.1786 17 8.03571C17 3.59989 13.1925 0 8.5 0ZM8.5 12.5C7.82754 12.5 7.17019 12.2905 6.61106 11.8981C6.05193 11.5057 5.61615 10.9479 5.35881 10.2953C5.10147 9.6427 5.03414 8.92461 5.16533 8.23182C5.29652 7.53903 5.62034 6.90266 6.09584 6.40319C6.57134 5.90372 7.17716 5.56357 7.83669 5.42577C8.49623 5.28796 9.17985 5.35869 9.80112 5.629C10.4224 5.89931 10.9534 6.35707 11.327 6.94439C11.7006 7.53171 11.9 8.22221 11.9 8.92857C11.899 9.87546 11.5405 10.7833 10.9031 11.4528C10.2657 12.1224 9.40143 12.499 8.5 12.5Z" fill="#767676"/>
</svg>
