<svg width="54" height="56" viewBox="0 0 54 56" fill="none" xmlns="http://www.w3.org/2000/svg">
<path d="M35.0206 18.4336C35.0206 18.4336 37.3297 17.4471 37.1373 19.8429C37.0732 20.8295 36.4959 24.2822 36.0469 28.0169L34.5075 39.08C34.5075 39.08 34.3792 40.7007 33.2246 40.9826C32.07 41.2644 30.3382 39.996 30.0175 39.7142C29.7609 39.5028 25.2068 36.3318 23.6032 34.7816C23.1542 34.3588 22.6411 33.5132 23.6674 32.5267L30.4024 25.4802C31.1721 24.6346 31.9418 22.6616 28.7346 25.0574L19.7547 31.7516C19.7547 31.7516 18.7284 32.4562 16.8042 31.8221L12.6349 30.4127C12.6349 30.4127 11.0955 29.3558 13.7253 28.2987C20.1396 24.9869 28.0291 21.6045 35.0206 18.4336Z" fill="#8E8E8E"/>
<path d="M52.2895 28C52.2895 42.7173 41.0407 54.5 27.3421 54.5C13.6436 54.5 2.39478 42.7173 2.39478 28C2.39478 13.2827 13.6436 1.5 27.3421 1.5C41.0407 1.5 52.2895 13.2827 52.2895 28Z" stroke="#8E8E8E" stroke-width="3"/>
</svg>
