<svg width="119" height="116" viewBox="0 0 119 116" fill="none" xmlns="http://www.w3.org/2000/svg">
<g filter="url(#filter0_d_50_5)">
<path d="M114 54C114 83.2454 89.6255 107 59.5 107C29.3745 107 5 83.2454 5 54C5 24.7546 29.3745 1 59.5 1C89.6255 1 114 24.7546 114 54Z" stroke="white" stroke-width="2"/>
<path d="M75.4193 36.309C75.4193 36.309 79.3046 34.794 78.9808 38.4733C78.8729 39.9883 77.9016 45.2908 77.1461 51.0262L74.5559 68.0159C74.5559 68.0159 74.3401 70.5048 72.3974 70.9377C70.4547 71.3705 67.5408 69.4227 67.0011 68.9898C66.5694 68.6652 58.9068 63.7955 56.2086 61.4148C55.4531 60.7655 54.5897 59.4669 56.3165 57.9519L67.6487 47.1305C68.9438 45.8319 70.2389 42.8019 64.8426 46.4812L49.7331 56.7616C49.7331 56.7616 48.0063 57.8437 44.7686 56.8698L37.7534 54.7055C37.7534 54.7055 35.1632 53.0823 39.5882 51.459C50.3807 46.3729 63.6555 41.1786 75.4193 36.309Z" fill="white"/>
</g>
<defs>
<filter id="filter0_d_50_5" x="0" y="0" width="119" height="116" filterUnits="userSpaceOnUse" color-interpolation-filters="sRGB">
<feFlood flood-opacity="0" result="BackgroundImageFix"/>
<feColorMatrix in="SourceAlpha" type="matrix" values="0 0 0 0 0 0 0 0 0 0 0 0 0 0 0 0 0 0 127 0" result="hardAlpha"/>
<feOffset dy="4"/>
<feGaussianBlur stdDeviation="2"/>
<feComposite in2="hardAlpha" operator="out"/>
<feColorMatrix type="matrix" values="0 0 0 0 0 0 0 0 0 0 0 0 0 0 0 0 0 0 0.25 0"/>
<feBlend mode="normal" in2="BackgroundImageFix" result="effect1_dropShadow_50_5"/>
<feBlend mode="normal" in="SourceGraphic" in2="effect1_dropShadow_50_5" result="shape"/>
</filter>
</defs>
</svg>
